<svg id="Capa_1" enable-background="new 0 0 511.996 511.996" height="512" viewBox="0 0 511.996 511.996" width="512" xmlns="http://www.w3.org/2000/svg"><g><path d="m345.368 15h67.67c4.136 0 7.5 3.364 7.5 7.5v355c0 4.143 3.357 7.5 7.5 7.5s7.5-3.357 7.5-7.5v-355c0-12.406-10.094-22.5-22.5-22.5h-67.67c-4.143 0-7.5 3.357-7.5 7.5s3.358 7.5 7.5 7.5z"/><path d="m160.418 206.15h60.12c4.143 0 7.5-3.357 7.5-7.5s-3.357-7.5-7.5-7.5h-52.62v-99.69h99.691v99.69h-14.38c-4.143 0-7.5 3.357-7.5 7.5s3.357 7.5 7.5 7.5h21.88c4.142 0 7.5-3.357 7.5-7.5v-114.69c0-4.143-3.358-7.5-7.5-7.5h-114.691c-4.143 0-7.5 3.357-7.5 7.5v114.69c0 4.143 3.357 7.5 7.5 7.5z"/><path d="m313.344 91.465h38.229c4.143 0 7.5-3.357 7.5-7.5 0-4.142-3.357-7.5-7.5-7.5h-38.229c-4.143 0-7.5 3.358-7.5 7.5s3.357 7.5 7.5 7.5z"/><path d="m313.344 129.694h38.229c4.143 0 7.5-3.357 7.5-7.5 0-4.142-3.357-7.5-7.5-7.5h-38.229c-4.143 0-7.5 3.358-7.5 7.5 0 4.143 3.357 7.5 7.5 7.5z"/><path d="m313.344 167.925h38.229c4.143 0 7.5-3.357 7.5-7.5s-3.357-7.5-7.5-7.5h-38.229c-4.143 0-7.5 3.357-7.5 7.5 0 4.142 3.357 7.5 7.5 7.5z"/><path d="m447.148 458.766h-11.61v-48.576c0-4.142-3.357-7.5-7.5-7.5s-7.5 3.358-7.5 7.5v48.575h-329.08v-436.265c0-4.136 3.364-7.5 7.5-7.5h213.72c4.143 0 7.5-3.357 7.5-7.5s-3.357-7.5-7.5-7.5h-213.72c-12.406 0-22.5 10.094-22.5 22.5v436.266h-11.61c-4.143 0-7.5 3.357-7.5 7.5v38.23c0 4.143 3.357 7.5 7.5 7.5h382.301c4.143 0 7.5-3.357 7.5-7.5v-38.23c-.001-4.143-3.358-7.5-7.501-7.5zm-7.5 38.23h-367.3v-23.23h367.301v23.23z"/><path d="m191.152 332.852c0 14.891 12.115 27.006 27.007 27.006 14.891 0 27.006-12.115 27.006-27.006s-12.115-27.006-27.006-27.006-27.007 12.115-27.007 27.006zm27.007-12.006c6.62 0 12.006 5.386 12.006 12.006s-5.386 12.006-12.006 12.006-12.007-5.386-12.007-12.006c0-6.621 5.387-12.006 12.007-12.006z"/><path d="m332.458 282.615c14.676 0 26.615-11.939 26.615-26.615s-11.939-26.615-26.615-26.615c-14.675 0-26.614 11.939-26.614 26.615s11.939 26.615 26.614 26.615zm0-38.23c6.404 0 11.615 5.211 11.615 11.615s-5.211 11.615-11.615 11.615-11.614-5.211-11.614-11.615 5.21-11.615 11.614-11.615z"/><path d="m152.923 428.035c0 4.143 3.357 7.5 7.5 7.5h114.69c4.143 0 7.5-3.357 7.5-7.5v-107.185h92.194c12.406 0 22.5-10.094 22.5-22.5v-237.62c0-12.406-10.094-22.5-22.5-22.5h-237.619c-12.406 0-22.5 10.094-22.5 22.5v237.62c0 12.406 10.094 22.5 22.5 22.5h15.734v107.185zm76.46-183.65v15.71c0 12.345 10.043 22.439 22.389 22.5l15.842.078s-.005 30.644-.005 30.677.005 68.803.005 68.803l-15.842.078c-12.346.062-22.389 10.155-22.389 22.5v15.804h-23.23v-15.804c0-12.345-10.043-22.438-22.388-22.5l-15.842-.078v-99.48l15.842-.078c12.345-.061 22.388-10.155 22.388-22.5v-15.71zm38.23 0v23.288l-15.768-.078c-4.115-.021-7.463-3.385-7.463-7.5v-15.71zm-76.461 15.71c0 4.115-3.348 7.479-7.462 7.5l-15.768.078v-23.288h23.229v15.71zm-23.229 137.059 15.768.078c4.114.021 7.462 3.385 7.462 7.5v15.804h-23.229v-23.382zm76.46 23.381v-15.804c0-4.115 3.348-7.479 7.463-7.5l15.768-.078v23.382zm-107.195-114.685c-4.136 0-7.5-3.364-7.5-7.5v-237.62c0-4.136 3.364-7.5 7.5-7.5h237.619c4.136 0 7.5 3.364 7.5 7.5v237.62c0 4.136-3.364 7.5-7.5 7.5h-92.194v-68.965c0-4.143-3.357-7.5-7.5-7.5h-114.69c-4.143 0-7.5 3.357-7.5 7.5v68.965z"/></g></svg>