<?xml version="1.0"?>
<svg xmlns="http://www.w3.org/2000/svg" viewBox="0 0 512 512" width="512" height="512"><g id="outline"><path d="M455.978,408A39.788,39.788,0,0,0,464,384a8,8,0,0,0-8-8H424.76l3.636-40H462a26.029,26.029,0,0,0,26-26V250a26.029,26.029,0,0,0-26-26H438.578l1.389-15.275A8,8,0,0,0,432,200H352v-4a28,28,0,0,0-56,0v4h-8a8,8,0,0,0-8,8v48a8,8,0,0,0,8,8h21.058l1.454,16H168a8.081,8.081,0,0,0-1.658.174L167.2,272h.8a8,8,0,0,0,8-8V232a8,8,0,0,0-8-8,64.081,64.081,0,0,0-56-63.482V139.845l37-29.6L139,97.753l-40,32A8,8,0,0,0,96,136v24.518A64.081,64.081,0,0,0,40,224a8,8,0,0,0-8,8v32a8,8,0,0,0,8,8h.8L55.114,408H16v16H496V408ZM434.214,272H440v16h-7.24Zm-2.909,32H448a8,8,0,0,0,8-8V264a8,8,0,0,0-8-8H435.669l1.455-16H462a10.011,10.011,0,0,1,10,10v60a10.011,10.011,0,0,1-10,10H429.851Zm-8.065-88L408.7,376H352a8,8,0,0,0-8-8h-9.422l-.727-8H358a26.029,26.029,0,0,0,26-26V306a26.029,26.029,0,0,0-26-26H326.578l-1.612-17.735A7.98,7.98,0,0,0,328,256V216Zm-87.612,96c.239-2.643.372-5.31.372-8v-8h22a10.011,10.011,0,0,1,10,10v28a10.011,10.011,0,0,1-10,10H326.427a87.618,87.618,0,0,0,6.268-16H352V312ZM312,196a12,12,0,0,1,24,0v4H312Zm-16,52V216h16v32ZM176,296H320v8a71.823,71.823,0,0,1-38.865,63.94l.031.06H215a71.512,71.512,0,0,1-39-64Zm142.513,72h-10.07a87.869,87.869,0,0,0,7.485-8h1.857ZM173.8,351.322A88.387,88.387,0,0,0,187.6,368H157.1l4.814-45.731A87.538,87.538,0,0,0,173.8,351.322ZM112,176.679A48.069,48.069,0,0,1,152,224H112Zm-16,0V224H56A48.069,48.069,0,0,1,96,176.679ZM48,240H160v16H48ZM71.2,408,56.887,272h94.226L136.8,408ZM184,408a24.028,24.028,0,0,1-24-24H336a24.028,24.028,0,0,1-24,24Zm159.978,0a39.835,39.835,0,0,0,7.217-16h95.434A24.042,24.042,0,0,1,424,408Z"/><path d="M104,288a32,32,0,1,0,32,32A32.036,32.036,0,0,0,104,288Zm0,48a16,16,0,1,1,16-16A16.019,16.019,0,0,1,104,336Z"/><path d="M244,256a8,8,0,0,0,16,0c0-3.578.888-4.91,2.656-7.563C264.912,245.054,268,240.421,268,232s-3.089-13.057-5.344-16.439a23.578,23.578,0,0,1-1.778-2.946,8,8,0,1,0-14.5,6.772,36.995,36.995,0,0,0,2.962,5.05C251.112,227.089,252,228.42,252,232s-.888,4.909-2.656,7.563C247.089,242.944,244,247.577,244,256Z"/><path d="M254.984,199.248a7.994,7.994,0,0,0,10.634-3.862A26.339,26.339,0,0,0,268,184a8,8,0,0,0-16,0,10.228,10.228,0,0,1-.878,4.614A8,8,0,0,0,254.984,199.248Z"/><path d="M212,264a8,8,0,0,0,8-8c0-3.579.888-4.91,2.656-7.563a8,8,0,1,0-13.312-8.875C207.089,242.944,204,247.577,204,256A8,8,0,0,0,212,264Z"/><path d="M211.122,227.384a8,8,0,1,0,14.5-6.768,36.932,36.932,0,0,0-2.964-5.054C220.888,212.908,220,211.576,220,208s.888-4.908,2.656-7.561C224.911,197.055,228,192.422,228,184a8,8,0,0,0-16,0c0,3.577-.888,4.908-2.656,7.562C207.089,194.943,204,199.576,204,208s3.088,13.055,5.344,16.438A23.59,23.59,0,0,1,211.122,227.384Z"/><path d="M404,176a8,8,0,0,0,16,0c0-3.578.888-4.91,2.656-7.563C424.912,165.054,428,160.421,428,152s-3.089-13.057-5.344-16.439a23.578,23.578,0,0,1-1.778-2.946,8,8,0,1,0-14.5,6.772,36.995,36.995,0,0,0,2.962,5.05C411.112,147.089,412,148.42,412,152s-.888,4.909-2.656,7.563C407.089,162.944,404,167.577,404,176Z"/><path d="M411.562,122.655a8,8,0,0,0,11.094-2.218C424.911,117.054,428,112.421,428,104a8,8,0,0,0-16,0c0,3.577-.888,4.908-2.656,7.562A8,8,0,0,0,411.562,122.655Z"/><path d="M372,184a8,8,0,0,0,8-8c0-3.578.888-4.91,2.656-7.562a37.1,37.1,0,0,0,2.963-5.054,8,8,0,0,0-14.5-6.768,23.578,23.578,0,0,1-1.778,2.946C367.088,162.945,364,167.578,364,176A8,8,0,0,0,372,184Z"/><path d="M376.007,148a8,8,0,0,0,6.649-12.437C380.888,132.907,380,131.575,380,128s.888-4.908,2.656-7.561C384.911,117.055,388,112.422,388,104a8,8,0,0,0-16,0c0,3.577-.888,4.908-2.656,7.562C367.089,114.943,364,119.576,364,128s3.088,13.054,5.342,16.437A8,8,0,0,0,376.007,148Z"/><path d="M216,328a8,8,0,0,0,0-16H200a8,8,0,0,0,0,16Z"/><path d="M240,328h40a8,8,0,0,0,0-16H240a8,8,0,0,0,0,16Z"/></g></svg>
