<svg id="Capa_1" enable-background="new 0 0 512 512" height="512" viewBox="0 0 512 512" width="512" xmlns="http://www.w3.org/2000/svg"><g><path d="m241 0h30v72.033h-30z"/><path d="m305.354 34.676h72.033v30h-72.033z" transform="matrix(.372 -.928 .928 .372 168.35 348.115)"/><path d="m376.269 81.01h72.033v30h-72.033z" transform="matrix(.674 -.739 .739 .674 63.554 335.976)"/><path d="m155.63 13.66h30v72.033h-30z" transform="matrix(.928 -.372 .372 .928 -6.238 66.996)"/><path d="m84.714 59.994h30v72.033h-30z" transform="matrix(.739 -.674 .674 .739 -38.658 92.251)"/><path d="m120 364h272v36h-272z"/><path d="m399.167 430h-286.334c-15.324 7.889-25.833 23.861-25.833 42.25v39.75h338v-39.75c0-18.389-10.509-34.361-25.833-42.25z"/><path d="m392 256c0-74.99-61.009-136-136-136s-136 61.01-136 136v78h272zm-121 40.313h-30v-30h30zm0-50.667h-30v-81.333h30z"/></g></svg>