<svg height="512" viewBox="0 0 64 64" width="512" xmlns="http://www.w3.org/2000/svg"><g id="pharmacy-drug-drug_store-dispensary-store" data-name="pharmacy-drug-drug store-dispensary-store"><path d="m34 54h16a3 3 0 0 0 3-3v-14a3 3 0 0 0 -3-3h-16a3 3 0 0 0 -3 3v14a3 3 0 0 0 3 3zm-1-17a1 1 0 0 1 1-1h16a1 1 0 0 1 1 1v14a1 1 0 0 1 -1 1h-16a1 1 0 0 1 -1-1z"/><path d="m47 43h2v-4a1 1 0 0 0 -1-1h-4v2h3z"/><path d="m22 47h2v2h-2z"/><path d="m59 56h-2v-24.1a5.017 5.017 0 0 0 4-4.9.66.66 0 0 0 -.01-.14l-1.75-12.28a3.02 3.02 0 0 0 -2.97-2.58h-7.27v-7a3.009 3.009 0 0 0 -3-3h-28a3.009 3.009 0 0 0 -3 3v7h-7.27a3.02 3.02 0 0 0 -2.97 2.58l-1.75 12.28a.66.66 0 0 0 -.01.14 5.017 5.017 0 0 0 4 4.9v24.1h-2a3 3 0 0 0 0 6h54a3 3 0 0 0 0-6zm-6-42h3.27a.991.991 0 0 1 .98.86l1.75 12.21a3 3 0 0 1 -6-.07zm-4 9v-9h2v13a3 3 0 0 1 -6 0v-1h1a3.009 3.009 0 0 0 3-3zm-32-18a1 1 0 0 1 1-1h28a1 1 0 0 1 1 1v18a1 1 0 0 1 -1 1h-28a1 1 0 0 1 -1-1zm26 21v1a3 3 0 0 1 -6 0v-1zm-8 0v1a3 3 0 0 1 -6 0v-1zm-8 0v1a3 3 0 0 1 -6 0v-1zm-14-12h2v9a3.009 3.009 0 0 0 3 3h1v1a3 3 0 0 1 -6 0zm-1 16a5 5 0 0 0 8 0 5 5 0 0 0 8 0 5 5 0 0 0 8 0 5 5 0 0 0 8 0 5 5 0 0 0 8 0 4.994 4.994 0 0 0 3 1.89v24.11h-28v-14a8 8 0 0 0 -16 0v14h-2v-24.11a4.994 4.994 0 0 0 3-1.89zm13 12v14h-12v-14a6 6 0 0 1 12 0zm-20-14.93 1.75-12.21a.991.991 0 0 1 .98-.86h3.27v13a3 3 0 0 1 -6 .07zm54 32.93h-54a1 1 0 0 1 0-2h54a1 1 0 0 1 0 2z"/><path d="m35 8v-2h-14v2h2v2h-1a1 1 0 0 0 -1 1v10a1 1 0 0 0 1 1h12a1 1 0 0 0 1-1v-10a1 1 0 0 0 -1-1h-1v-2zm-10 0h6v2h-6zm8 12h-10v-8h10z"/><path d="m29 13h-2v2h-2v2h2v2h2v-2h2v-2h-2z"/><path d="m41 6a4 4 0 0 0 -4 4v8a4 4 0 0 0 8 0v-8a4 4 0 0 0 -4-4zm2 12a2 2 0 0 1 -4 0v-3h4zm0-5h-4v-3a2 2 0 0 1 4 0z"/></g></svg>