<svg id="rest-time" enable-background="new 0 0 300 300" height="512" viewBox="0 0 300 300" width="512" xmlns="http://www.w3.org/2000/svg"><g><path d="m240 114c7.719 0 14-6.281 14-14s-6.281-14-14-14-14 6.281-14 14 6.281 14 14 14zm0-20c3.309 0 6 2.691 6 6s-2.691 6-6 6-6-2.691-6-6 2.691-6 6-6z"/><path d="m238.328 60.668c2.362 0 4.276-1.915 4.276-4.277s-1.914-4.276-4.276-4.276-4.276 1.915-4.276 4.276c0 2.362 1.914 4.277 4.276 4.277z"/><path d="m244 162c-2.155 0-4.174.53-6 1.404v-6.41c0-10.473-8.586-18.994-19.141-18.994h-14.287v.029c-.819-.576-1.677-1.095-2.572-1.558v-26.471c0-11.027-8.973-20-20-20s-20 8.973-20 20v9.926c0 5.58 2.098 10.668 5.525 14.559-2.959.627-5.695 1.854-8.09 3.538-.04-.001-.073-.023-.113-.023h-79.697c-9.719 0-17.625 7.906-17.625 17.625v7.779c-1.826-.874-3.845-1.404-6-1.404-7.719 0-14 6.281-14 14v40c0 7.719 6.281 14 14 14 1.385 0 2.696-.264 3.96-.64.063.039.118.089.184.124l-8.294 16.585c-.619 1.24-.553 2.713.176 3.893.729 1.178 2.016 1.896 3.402 1.896h11.145c1.357 0 2.623-.688 3.359-1.828l12.949-20.03h107.119v29.53c-2.458 2.814-4 6.449-4 10.47 0 2.209 1.791 4 4 4h24c2.209 0 4-1.791 4-4 0-4.021-1.542-7.656-4-10.47v-29.53h3.406l12.949 20.029c.736 1.141 2.002 1.828 3.359 1.828h11.143c1.387 0 2.674-.719 3.402-1.896.729-1.18.795-2.652.176-3.893l-8.034-16.068h1.599 2c7.719 0 14-6.281 14-14v-40c0-7.719-6.281-14-14-14zm-14-5.006v19.006 30h-12v-16c0-2.209-1.791-4-4-4v-29.889c0-3.645-.902-7.077-2.471-10.111h7.33c6.143 0 11.141 4.932 11.141 10.994zm-24 97.574c-1.286-.334-2.611-.568-4-.568s-2.714.234-4 .568v-40.568h5.346c.052 0 .096-.028.148-.03.775.681 1.61 1.281 2.507 1.804v38.794zm-64-52.568c0-2.205 1.795-4 4-4h52.568c-.334 1.286-.568 2.611-.568 4s.234 2.714.568 4h-5.777-46.791c-2.205 0-4-1.795-4-4zm30.111-60h19.777c7.781 0 14.111 6.33 14.111 14.111v32.115c-.883.515-1.705 1.105-2.47 1.774h-45.529v-33.889c0-7.781 6.33-14.111 14.111-14.111zm37.889 53.074v13.852c-2.389-1.385-4-3.971-4-6.926s1.611-5.541 4-6.926zm-40-85.074c0-6.617 5.383-12 12-12s12 5.383 12 12v24h-2.111-7.814c-7.76 0-14.074-6.314-14.074-14.074v-9.926zm-100 45.625c0-5.307 4.318-9.625 9.625-9.625h72.846c-1.569 3.034-2.471 6.467-2.471 10.111v33.889h-4c-6.617 0-12 5.383-12 12 0 1.409.289 2.743.737 4h-64.737v-30zm-20 60.375v-40c0-3.309 2.691-6 6-6s6 2.691 6 6v34 6c0 3.309-2.691 6-6 6s-6-2.691-6-6zm14.395 27.857h-2.495l6.931-13.857h4.523zm4.201-21.857c.874-1.826 1.404-3.845 1.404-6v-2h76 44v8zm126.478 44c1.385-2.389 3.971-4 6.926-4s5.541 1.611 6.926 4zm18.926-48c2.209 0 4-1.791 4-4h12v2c0 2.155.53 4.174 1.404 6h-17.404zm24.385 25.857h-2.492l-8.959-13.857h4.522zm11.615-27.857c0 3.309-2.691 6-6 6s-6-2.691-6-6v-6-34c0-3.309 2.691-6 6-6s6 2.691 6 6z"/><path d="m198 186c2.209 0 4-1.791 4-4v-20c0-2.209-1.791-4-4-4s-4 1.791-4 4v20c0 2.209 1.791 4 4 4z"/><path d="m166 186c2.209 0 4-1.791 4-4v-20c0-2.209-1.791-4-4-4s-4 1.791-4 4v20c0 2.209 1.791 4 4 4z"/><path d="m94 122c22.057 0 40-17.943 40-40s-17.943-40-40-40-40 17.943-40 40 17.943 40 40 40zm0-72c17.645 0 32 14.355 32 32s-14.355 32-32 32-32-14.355-32-32 14.355-32 32-32z"/><path d="m82.004 94c.666 0 1.34-.166 1.961-.516l12-6.77c1.258-.708 2.035-2.04 2.035-3.484v-17.23c0-2.209-1.791-4-4-4s-4 1.791-4 4v14.895l-9.965 5.621c-1.924 1.086-2.604 3.525-1.52 5.449.737 1.303 2.092 2.035 3.489 2.035z"/><path d="m186 50h8c2.209 0 4-1.791 4-4s-1.791-4-4-4h-8c-2.209 0-4 1.791-4 4s1.791 4 4 4z"/><path d="m178 42c2.209 0 4-1.791 4-4v-8c0-2.209-1.791-4-4-4s-4 1.791-4 4v8c0 2.209 1.791 4 4 4z"/><path d="m178 50c-2.209 0-4 1.791-4 4v8c0 2.209 1.791 4 4 4s4-1.791 4-4v-8c0-2.209-1.791-4-4-4z"/><path d="m162 50h8c2.209 0 4-1.791 4-4s-1.791-4-4-4h-8c-2.209 0-4 1.791-4 4s1.791 4 4 4z"/></g></svg>